<svg xmlns="http://www.w3.org/2000/svg" xmlns:xlink="http://www.w3.org/1999/xlink" width="1920" zoomAndPan="magnify" viewBox="0 0 1440 809.999993" height="1080" preserveAspectRatio="xMidYMid meet" version="1.0"><defs><g/><clipPath id="id1"><path d="M 81.496094 336.199219 L 380 336.199219 L 380 635 L 81.496094 635 Z M 81.496094 336.199219 " clip-rule="nonzero"/></clipPath><clipPath id="id2"><path d="M 22 174.675781 L 244 174.675781 L 244 477.816406 L 22 477.816406 Z M 22 174.675781 " clip-rule="nonzero"/></clipPath></defs><g fill="#29c6cd" fill-opacity="1"><g transform="translate(424.834545, 453.549998)"><g><path d="M 59.03125 -92.640625 C 47.085938 -92.640625 38.898438 -88.886719 32.246094 -80.695312 L 27.808594 -92.128906 L 11.941406 -92.128906 L 11.941406 0 L 36.851562 0 L 36.851562 -47.769531 C 36.851562 -62.78125 42.308594 -69.09375 56.300781 -69.09375 L 67.21875 -69.09375 L 67.21875 -92.640625 Z M 59.03125 -92.640625 "/></g></g></g><g fill="#29c6cd" fill-opacity="1"><g transform="translate(494.257937, 453.549998)"><g><path d="M 87.007812 -92.128906 L 84.449219 -83.425781 C 76.433594 -90.421875 66.023438 -94.6875 54.082031 -94.6875 C 26.445312 -94.6875 5.800781 -73.871094 5.800781 -46.0625 C 5.800781 -18.253906 26.445312 2.730469 54.082031 2.730469 C 65.855469 2.730469 76.089844 -1.363281 83.9375 -8.359375 L 86.15625 0 L 105.605469 0 L 105.605469 -92.128906 Z M 56.128906 -20.8125 C 41.628906 -20.8125 31.050781 -31.734375 31.050781 -46.0625 C 31.050781 -60.566406 41.628906 -71.3125 56.128906 -71.3125 C 70.632812 -71.3125 81.207031 -60.566406 81.207031 -46.0625 C 81.207031 -31.5625 70.632812 -20.8125 56.128906 -20.8125 Z M 56.128906 -20.8125 "/></g></g></g><g fill="#29c6cd" fill-opacity="1"><g transform="translate(611.953549, 453.549998)"><g><path d="M 116.695312 -94.175781 C 104.921875 -94.175781 94.515625 -88.375 88.203125 -79.503906 C 82.742188 -88.714844 73.191406 -94.175781 61.417969 -94.175781 C 50.5 -94.175781 40.433594 -88.886719 33.949219 -80.695312 L 29.34375 -92.128906 L 11.941406 -92.128906 L 11.941406 0 L 36.851562 0 L 36.851562 -49.816406 C 36.851562 -64.148438 43.503906 -72.335938 54.765625 -72.335938 C 63.636719 -72.335938 68.414062 -65.855469 68.414062 -53.570312 L 68.414062 0 L 92.640625 0 L 92.640625 -49.816406 C 92.640625 -64.148438 99.292969 -72.335938 110.382812 -72.335938 C 119.425781 -72.335938 124.203125 -65.855469 124.203125 -53.570312 L 124.203125 0 L 149.109375 0 L 149.109375 -57.664062 C 149.109375 -79.332031 135.800781 -94.175781 116.695312 -94.175781 Z M 116.695312 -94.175781 "/></g></g></g><g fill="#29c6cd" fill-opacity="1"><g transform="translate(771.951394, 453.549998)"><g><path d="M 101.339844 -46.234375 C 101.339844 -72.847656 81.890625 -94.6875 53.570312 -94.6875 C 26.273438 -94.6875 5.800781 -73.703125 5.800781 -46.0625 C 5.800781 -18.425781 26.445312 2.730469 53.570312 2.730469 C 75.066406 2.730469 92.640625 -10.066406 99.292969 -30.199219 L 73.191406 -30.199219 C 69.4375 -23.542969 62.269531 -19.449219 53.570312 -19.449219 C 41.457031 -19.449219 33.269531 -26.445312 31.050781 -39.070312 L 100.828125 -39.070312 C 101.167969 -41.457031 101.339844 -43.847656 101.339844 -46.234375 Z M 53.570312 -73.359375 C 64.832031 -73.359375 72.847656 -67.21875 76.433594 -55.957031 L 31.734375 -55.957031 C 34.632812 -66.878906 42.480469 -73.359375 53.570312 -73.359375 Z M 53.570312 -73.359375 "/></g></g></g><g fill="#29c6cd" fill-opacity="1"><g transform="translate(879.071477, 453.549998)"><g><path d="M 59.03125 -92.640625 C 47.085938 -92.640625 38.898438 -88.886719 32.246094 -80.695312 L 27.808594 -92.128906 L 11.941406 -92.128906 L 11.941406 0 L 36.851562 0 L 36.851562 -47.769531 C 36.851562 -62.78125 42.308594 -69.09375 56.300781 -69.09375 L 67.21875 -69.09375 L 67.21875 -92.640625 Z M 59.03125 -92.640625 "/></g></g></g><g fill="#29c6cd" fill-opacity="1"><g transform="translate(948.494869, 453.549998)"><g><path d="M 11.941406 -104.410156 L 36.679688 -104.410156 L 36.679688 -127.441406 L 11.941406 -127.441406 Z M 11.941406 0 L 36.851562 0 L 36.851562 -92.128906 L 11.941406 -92.128906 Z M 11.941406 0 "/></g></g></g><g fill="#29c6cd" fill-opacity="1"><g transform="translate(997.278865, 453.549998)"><g><path d="M 55.617188 2.730469 C 84.109375 2.730469 105.433594 -18.253906 105.433594 -46.0625 C 105.433594 -73.871094 84.109375 -94.6875 55.617188 -94.6875 C 27.125 -94.6875 5.800781 -73.871094 5.800781 -46.0625 C 5.800781 -18.253906 27.125 2.730469 55.617188 2.730469 Z M 55.617188 -20.8125 C 41.285156 -20.8125 31.050781 -31.050781 31.050781 -46.0625 C 31.050781 -60.90625 41.285156 -71.3125 55.617188 -71.3125 C 69.949219 -71.3125 80.183594 -60.90625 80.183594 -46.0625 C 80.183594 -31.050781 69.949219 -20.8125 55.617188 -20.8125 Z M 55.617188 -20.8125 "/></g></g></g><g fill="#29c6cd" fill-opacity="1"><g transform="translate(1108.66327, 453.549998)"><g><path d="M 64.320312 -94.175781 C 51.863281 -94.175781 40.773438 -88.886719 33.78125 -80.695312 L 29.003906 -92.128906 L 11.941406 -92.128906 L 11.941406 0 L 36.851562 0 L 36.851562 -48.28125 C 36.851562 -63.125 44.699219 -72.335938 57.496094 -72.335938 C 68.242188 -72.335938 73.53125 -65.683594 73.53125 -51.695312 L 73.53125 0 L 98.441406 0 L 98.441406 -55.789062 C 98.441406 -79.160156 85.304688 -94.175781 64.320312 -94.175781 Z M 64.320312 -94.175781 "/></g></g></g><g fill="#29c6cd" fill-opacity="1"><g transform="translate(1218.000793, 453.549998)"><g><path d="M 10.066406 0 L 36.511719 0 L 36.511719 -26.613281 L 10.066406 -26.613281 Z M 10.066406 0 "/></g></g></g><g fill="#29c6cd" fill-opacity="1"><g transform="translate(1264.737905, 453.549998)"><g><path d="M 11.941406 -104.410156 L 36.679688 -104.410156 L 36.679688 -127.441406 L 11.941406 -127.441406 Z M 11.941406 0 L 36.851562 0 L 36.851562 -92.128906 L 11.941406 -92.128906 Z M 11.941406 0 "/></g></g></g><g fill="#29c6cd" fill-opacity="1"><g transform="translate(1313.521902, 453.549998)"><g><path d="M 79.503906 -125.226562 L 79.503906 -87.007812 C 72.335938 -91.957031 63.808594 -94.6875 54.253906 -94.6875 C 26.273438 -94.6875 5.800781 -73.871094 5.800781 -45.894531 C 5.800781 -18.085938 26.273438 2.898438 54.253906 2.898438 C 65.511719 2.898438 75.40625 -1.023438 83.085938 -7.507812 L 85.984375 0.171875 L 104.410156 0.171875 L 104.410156 -125.226562 Z M 56.300781 -20.644531 C 41.796875 -20.644531 31.222656 -31.5625 31.222656 -45.894531 C 31.222656 -60.394531 41.796875 -71.144531 56.300781 -71.144531 C 70.800781 -71.144531 81.378906 -60.394531 81.378906 -45.894531 C 81.378906 -31.5625 70.800781 -20.644531 56.300781 -20.644531 Z M 56.300781 -20.644531 "/></g></g></g><g clip-path="url(#id1)"><path fill="#29c6cd" d="M 230.0625 336.753906 C 312.386719 336.753906 379.128906 397.917969 379.128906 473.398438 C 379.128906 503.011719 368.746094 530.339844 351.261719 552.734375 L 378.183594 617.707031 C 380.800781 624.054688 377.792969 631.304688 371.460938 633.9375 C 368.28125 635.25 364.886719 635.164062 361.949219 633.9375 L 282.683594 601.109375 C 266.3125 606.789062 248.621094 610.042969 230.0625 610.042969 C 147.71875 610.042969 81 548.839844 81 473.398438 C 81 397.917969 147.71875 336.753906 230.0625 336.753906 Z M 292.175781 492.03125 C 302.476562 492.03125 310.808594 483.6875 310.808594 473.398438 C 310.808594 463.085938 302.476562 454.765625 292.175781 454.765625 C 281.886719 454.765625 273.542969 463.085938 273.542969 473.398438 C 273.542969 483.6875 281.886719 492.03125 292.175781 492.03125 Z M 230.0625 492.03125 C 240.363281 492.03125 248.699219 483.6875 248.699219 473.398438 C 248.699219 463.085938 240.363281 454.765625 230.0625 454.765625 C 219.773438 454.765625 211.429688 463.085938 211.429688 473.398438 C 211.429688 483.6875 219.773438 492.03125 230.0625 492.03125 Z M 167.953125 492.03125 C 178.253906 492.03125 186.585938 483.6875 186.585938 473.398438 C 186.585938 463.085938 178.253906 454.765625 167.953125 454.765625 C 157.667969 454.765625 149.320312 463.085938 149.320312 473.398438 C 149.320312 483.6875 157.667969 492.03125 167.953125 492.03125 Z M 167.953125 492.03125 " fill-opacity="1" fill-rule="nonzero"/></g><g clip-path="url(#id2)"><path fill="#29c6cd" d="M 243.929688 302.628906 L 238.777344 257.15625 C 237.859375 249.191406 231.085938 243.128906 223.042969 243.128906 L 197.429688 243.128906 L 197.429688 230.15625 C 197.429688 199.699219 172.664062 174.957031 142.183594 174.957031 C 111.703125 174.957031 86.9375 199.699219 86.9375 230.15625 L 86.9375 243.128906 L 61.324219 243.128906 C 53.28125 243.128906 46.507812 249.191406 45.589844 257.15625 L 22.445312 460.121094 C 21.316406 469.851562 28.9375 478.3125 38.746094 478.3125 L 47.351562 478.3125 C 82.914062 325.824219 196.867188 304.671875 243.929688 302.628906 Z M 190.375 259.695312 C 194.253906 259.695312 197.429688 262.867188 197.429688 266.746094 C 197.429688 270.621094 194.253906 273.792969 190.375 273.792969 C 186.492188 273.792969 183.316406 270.621094 183.316406 266.746094 C 183.316406 262.867188 186.492188 259.695312 190.375 259.695312 Z M 101.046875 230.226562 C 101.046875 207.597656 119.464844 189.125 142.183594 189.125 C 164.902344 189.125 183.316406 207.597656 183.316406 230.226562 L 183.316406 243.199219 L 101.046875 243.199219 Z M 93.992188 259.695312 C 97.871094 259.695312 101.046875 262.867188 101.046875 266.746094 C 101.046875 270.621094 97.871094 273.792969 93.992188 273.792969 C 90.109375 273.792969 86.9375 270.621094 86.9375 266.746094 C 86.9375 262.867188 90.109375 259.695312 93.992188 259.695312 Z M 93.992188 259.695312 " fill-opacity="1" fill-rule="nonzero"/></g></svg>